<svg width="100%" viewBox="0 0 680 372" role="img" xmlns="http://www.w3.org/2000/svg">
<title>Curriculum vs shuffled — an honest negative</title>
<desc>Validation perplexity vs step for easy-first curriculum versus shuffled order, same Muon optimizer. Shuffled is below curriculum at every step; the curriculum hurts.</desc>
<text x="40" y="30" class="th">curriculum vs shuffled — honest negative: easy-first hurts here</text>
<text x="40" y="50" class="ts">same 3-layer model + Muon; only data order differs. lower ppl = better</text>
<line x1="90" y1="329.3" x2="620" y2="329.3" stroke="var(--t)" stroke-width="0.5" opacity="0.18"/><text x="84" y="333.3" class="ts" text-anchor="end">50</text><line x1="90" y1="300.8" x2="620" y2="300.8" stroke="var(--t)" stroke-width="0.5" opacity="0.18"/><text x="84" y="304.8" class="ts" text-anchor="end">100</text><line x1="90" y1="243.7" x2="620" y2="243.7" stroke="var(--t)" stroke-width="0.5" opacity="0.18"/><text x="84" y="247.7" class="ts" text-anchor="end">200</text><line x1="90" y1="129.7" x2="620" y2="129.7" stroke="var(--t)" stroke-width="0.5" opacity="0.18"/><text x="84" y="133.7" class="ts" text-anchor="end">400</text>
<polyline points="134.2,80.0 178.3,194.2 222.5,229.8 266.7,252.9 310.8,278.6 355.0,286.5 399.2,304.2 443.3,312.6 487.5,317.9 531.7,318.9 575.8,320.4 620.0,327.1" fill="none" stroke="#D85A30" stroke-width="2.5"/><circle cx="134.2" cy="80.0" r="2.5" fill="#D85A30"/><circle cx="178.3" cy="194.2" r="2.5" fill="#D85A30"/><circle cx="222.5" cy="229.8" r="2.5" fill="#D85A30"/><circle cx="266.7" cy="252.9" r="2.5" fill="#D85A30"/><circle cx="310.8" cy="278.6" r="2.5" fill="#D85A30"/><circle cx="355.0" cy="286.5" r="2.5" fill="#D85A30"/><circle cx="399.2" cy="304.2" r="2.5" fill="#D85A30"/><circle cx="443.3" cy="312.6" r="2.5" fill="#D85A30"/><circle cx="487.5" cy="317.9" r="2.5" fill="#D85A30"/><circle cx="531.7" cy="318.9" r="2.5" fill="#D85A30"/><circle cx="575.8" cy="320.4" r="2.5" fill="#D85A30"/><circle cx="620.0" cy="327.1" r="2.5" fill="#D85A30"/>
<polyline points="134.2,267.2 178.3,297.4 222.5,310.6 266.7,317.9 310.8,321.3 355.0,324.1 399.2,326.0 443.3,327.2 487.5,328.1 531.7,328.6 575.8,329.5 620.0,330.0" fill="none" stroke="#1D9E75" stroke-width="2.5"/><circle cx="134.2" cy="267.2" r="2.5" fill="#1D9E75"/><circle cx="178.3" cy="297.4" r="2.5" fill="#1D9E75"/><circle cx="222.5" cy="310.6" r="2.5" fill="#1D9E75"/><circle cx="266.7" cy="317.9" r="2.5" fill="#1D9E75"/><circle cx="310.8" cy="321.3" r="2.5" fill="#1D9E75"/><circle cx="355.0" cy="324.1" r="2.5" fill="#1D9E75"/><circle cx="399.2" cy="326.0" r="2.5" fill="#1D9E75"/><circle cx="443.3" cy="327.2" r="2.5" fill="#1D9E75"/><circle cx="487.5" cy="328.1" r="2.5" fill="#1D9E75"/><circle cx="531.7" cy="328.6" r="2.5" fill="#1D9E75"/><circle cx="575.8" cy="329.5" r="2.5" fill="#1D9E75"/><circle cx="620.0" cy="330.0" r="2.5" fill="#1D9E75"/>
<text x="355" y="279" class="ts" fill="#D85A30">curriculum (easy-first)</text>
<text x="355" y="340" class="ts" fill="#1D9E75">shuffled</text>
<text x="40" y="358" class="ts">competence-based curriculum (token-rarity, 0.2→1.0) starves the model of the full distribution early; shuffled wins throughout. Kept shuffled.</text>
</svg>