<svg width="100%" viewBox="0 0 680 380" role="img" xmlns="http://www.w3.org/2000/svg"><title>Unfrozen study loop</title><desc>Held-out accuracy across sessions.</desc><text x="40" y="30" class="th">unfrozen study loop — 25-way, 15360 experiences lived, session 240</text><text x="40" y="50" class="ts">held-out test accuracy across persistent self-measured sessions; frozen prior is flat</text><polyline points="80.0,282.4 82.3,282.4 84.7,282.4 87.0,282.4 89.4,282.4 91.7,282.4 94.1,282.4 96.4,282.4 98.7,282.4 101.1,282.4 103.4,282.4 105.8,282.4 108.1,282.4 110.5,282.4 112.8,282.4 115.1,282.4 117.5,282.4 119.8,282.4 122.2,282.4 124.5,282.4 126.9,282.4 129.2,282.4 131.5,282.4 133.9,282.4 136.2,282.4 138.6,282.4 140.9,282.4 143.3,282.4 145.6,282.4 147.9,282.4 150.3,282.4 152.6,282.4 155.0,282.4 157.3,282.4 159.7,282.4 162.0,282.4 164.4,282.4 166.7,282.4 169.0,282.4 171.4,282.4 173.7,282.4 176.1,282.4 178.4,282.4 180.8,282.4 183.1,282.4 185.4,282.4 187.8,282.4 190.1,282.4 192.5,282.4 194.8,282.4 197.2,282.4 199.5,282.4 201.8,282.4 204.2,282.4 206.5,282.4 208.9,282.4 211.2,282.4 213.6,282.4 215.9,282.4 218.2,282.4 220.6,282.4 222.9,282.4 225.3,282.4 227.6,282.4 230.0,282.4 232.3,282.4 234.6,282.4 237.0,282.4 239.3,282.4 241.7,282.4 244.0,282.4 246.4,282.4 248.7,282.4 251.0,282.4 253.4,282.4 255.7,282.4 258.1,282.4 260.4,282.4 262.8,282.4 265.1,282.4 267.4,282.4 269.8,282.4 272.1,282.4 274.5,282.4 276.8,282.4 279.2,282.4 281.5,282.4 283.8,282.4 286.2,282.4 288.5,282.4 290.9,282.4 293.2,282.4 295.6,282.4 297.9,282.4 300.3,282.4 302.6,282.4 304.9,282.4 307.3,282.4 309.6,282.4 312.0,282.4 314.3,282.4 316.7,282.4 319.0,282.4 321.3,282.4 323.7,282.4 326.0,282.4 328.4,282.4 330.7,282.4 333.1,282.4 335.4,282.4 337.7,282.4 340.1,282.4 342.4,282.4 344.8,282.4 347.1,282.4 349.5,282.4 351.8,282.4 354.1,282.4 356.5,282.4 358.8,282.4 361.2,282.4 363.5,282.4 365.9,282.4 368.2,282.4 370.5,282.4 372.9,282.4 375.2,282.4 377.6,282.4 379.9,282.4 382.3,282.4 384.6,282.4 386.9,282.4 389.3,282.4 391.6,282.4 394.0,282.4 396.3,282.4 398.7,282.4 401.0,282.4 403.3,282.4 405.7,282.4 408.0,282.4 410.4,282.4 412.7,282.4 415.1,282.4 417.4,282.4 419.7,282.4 422.1,282.4 424.4,282.4 426.8,282.4 429.1,282.4 431.5,282.4 433.8,282.4 436.2,282.4 438.5,282.4 440.8,282.4 443.2,282.4 445.5,282.4 447.9,282.4 450.2,282.4 452.6,282.4 454.9,282.4 457.2,282.4 459.6,282.4 461.9,282.4 464.3,282.4 466.6,282.4 469.0,282.4 471.3,282.4 473.6,282.4 476.0,282.4 478.3,282.4 480.7,282.4 483.0,282.4 485.4,282.4 487.7,282.4 490.0,282.4 492.4,282.4 494.7,282.4 497.1,282.4 499.4,282.4 501.8,282.4 504.1,282.4 506.4,282.4 508.8,282.4 511.1,282.4 513.5,282.4 515.8,282.4 518.2,282.4 520.5,282.4 522.8,282.4 525.2,282.4 527.5,282.4 529.9,282.4 532.2,282.4 534.6,282.4 536.9,282.4 539.2,282.4 541.6,282.4 543.9,282.4 546.3,282.4 548.6,282.4 551.0,282.4 553.3,282.4 555.6,282.4 558.0,282.4 560.3,282.4 562.7,282.4 565.0,282.4 567.4,282.4 569.7,282.4 572.1,282.4 574.4,282.4 576.7,282.4 579.1,282.4 581.4,282.4 583.8,282.4 586.1,282.4 588.5,282.4 590.8,282.4 593.1,282.4 595.5,282.4 597.8,282.4 600.2,282.4 602.5,282.4 604.9,282.4 607.2,282.4 609.5,282.4 611.9,282.4 614.2,282.4 616.6,282.4 618.9,282.4 621.3,282.4 623.6,282.4 625.9,282.4 628.3,282.4 630.6,282.4 633.0,282.4 635.3,282.4 637.7,282.4 640.0,282.4" fill="none" stroke="#D85A30" stroke-width="2"/><polyline points="80.0,172.3 82.3,127.6 84.7,127.6 87.0,199.9 89.4,182.6 91.7,179.2 94.1,151.6 96.4,158.5 98.7,161.9 101.1,165.4 103.4,175.7 105.8,172.3 108.1,168.8 110.5,161.9 112.8,158.5 115.1,155.0 117.5,144.7 119.8,144.7 122.2,148.1 124.5,144.7 126.9,148.1 129.2,151.6 131.5,161.9 133.9,151.6 136.2,155.0 138.6,158.5 140.9,161.9 143.3,155.0 145.6,158.5 147.9,155.0 150.3,155.0 152.6,165.4 155.0,161.9 157.3,168.8 159.7,161.9 162.0,165.4 164.4,165.4 166.7,158.5 169.0,158.5 171.4,158.5 173.7,158.5 176.1,165.4 178.4,165.4 180.8,165.4 183.1,161.9 185.4,168.8 187.8,158.5 190.1,161.9 192.5,158.5 194.8,161.9 197.2,161.9 199.5,165.4 201.8,165.4 204.2,165.4 206.5,165.4 208.9,165.4 211.2,168.8 213.6,168.8 215.9,168.8 218.2,165.4 220.6,165.4 222.9,161.9 225.3,161.9 227.6,161.9 230.0,165.4 232.3,165.4 234.6,165.4 237.0,165.4 239.3,168.8 241.7,165.4 244.0,165.4 246.4,165.4 248.7,165.4 251.0,165.4 253.4,168.8 255.7,168.8 258.1,168.8 260.4,168.8 262.8,168.8 265.1,168.8 267.4,165.4 269.8,165.4 272.1,165.4 274.5,165.4 276.8,165.4 279.2,165.4 281.5,168.8 283.8,168.8 286.2,168.8 288.5,168.8 290.9,168.8 293.2,168.8 295.6,165.4 297.9,168.8 300.3,165.4 302.6,165.4 304.9,168.8 307.3,168.8 309.6,168.8 312.0,168.8 314.3,168.8 316.7,172.3 319.0,168.8 321.3,172.3 323.7,168.8 326.0,168.8 328.4,165.4 330.7,165.4 333.1,165.4 335.4,168.8 337.7,168.8 340.1,168.8 342.4,168.8 344.8,168.8 347.1,168.8 349.5,168.8 351.8,168.8 354.1,168.8 356.5,165.4 358.8,168.8 361.2,168.8 363.5,172.3 365.9,172.3 368.2,172.3 370.5,172.3 372.9,172.3 375.2,172.3 377.6,172.3 379.9,172.3 382.3,168.8 384.6,168.8 386.9,168.8 389.3,168.8 391.6,168.8 394.0,168.8 396.3,168.8 398.7,168.8 401.0,168.8 403.3,172.3 405.7,172.3 408.0,172.3 410.4,172.3 412.7,172.3 415.1,172.3 417.4,172.3 419.7,172.3 422.1,172.3 424.4,172.3 426.8,172.3 429.1,172.3 431.5,172.3 433.8,172.3 436.2,168.8 438.5,168.8 440.8,168.8 443.2,168.8 445.5,168.8 447.9,168.8 450.2,168.8 452.6,168.8 454.9,172.3 457.2,172.3 459.6,172.3 461.9,172.3 464.3,172.3 466.6,172.3 469.0,172.3 471.3,172.3 473.6,172.3 476.0,172.3 478.3,172.3 480.7,172.3 483.0,172.3 485.4,172.3 487.7,172.3 490.0,168.8 492.4,168.8 494.7,168.8 497.1,168.8 499.4,168.8 501.8,168.8 504.1,168.8 506.4,168.8 508.8,172.3 511.1,172.3 513.5,172.3 515.8,172.3 518.2,172.3 520.5,172.3 522.8,172.3 525.2,172.3 527.5,172.3 529.9,172.3 532.2,172.3 534.6,172.3 536.9,172.3 539.2,172.3 541.6,168.8 543.9,168.8 546.3,168.8 548.6,168.8 551.0,168.8 553.3,168.8 555.6,168.8 558.0,168.8 560.3,168.8 562.7,172.3 565.0,172.3 567.4,172.3 569.7,172.3 572.1,172.3 574.4,172.3 576.7,172.3 579.1,172.3 581.4,172.3 583.8,172.3 586.1,172.3 588.5,172.3 590.8,172.3 593.1,172.3 595.5,168.8 597.8,168.8 600.2,168.8 602.5,168.8 604.9,168.8 607.2,168.8 609.5,168.8 611.9,172.3 614.2,172.3 616.6,172.3 618.9,172.3 621.3,172.3 623.6,172.3 625.9,172.3 628.3,172.3 630.6,172.3 633.0,172.3 635.3,172.3 637.7,172.3 640.0,172.3" fill="none" stroke="#444441" stroke-width="3"/><circle cx="80" cy="356" r="4" fill="#D85A30"/><text x="90" y="360" class="ts">frozen prior</text><circle cx="240" cy="356" r="4" fill="#444441"/><text x="250" y="360" class="ts">unfrozen agent (current 0.624)</text></svg>