<svg width="100%" viewBox="0 0 680 380" role="img" xmlns="http://www.w3.org/2000/svg"><title>Unfrozen study loop</title><desc>Held-out accuracy across sessions.</desc><text x="40" y="30" class="th">unfrozen study loop — 25-way, 1920 experiences lived, session 30</text><text x="40" y="50" class="ts">held-out test accuracy across persistent self-measured sessions; frozen prior is flat</text><polyline points="80.0,302.7 99.3,302.7 118.6,302.7 137.9,302.7 157.2,302.7 176.6,302.7 195.9,302.7 215.2,302.7 234.5,302.7 253.8,302.7 273.1,302.7 292.4,302.7 311.7,302.7 331.0,302.7 350.3,302.7 369.7,302.7 389.0,302.7 408.3,302.7 427.6,302.7 446.9,302.7 466.2,302.7 485.5,302.7 504.8,302.7 524.1,302.7 543.4,302.7 562.8,302.7 582.1,302.7 601.4,302.7 620.7,302.7 640.0,302.7" fill="none" stroke="#D85A30" stroke-width="2"/><polyline points="80.0,156.1 99.3,139.8 118.6,145.3 137.9,139.8 157.2,134.4 176.6,123.5 195.9,129.0 215.2,123.5 234.5,134.4 253.8,118.1 273.1,129.0 292.4,129.0 311.7,112.7 331.0,112.7 350.3,107.3 369.7,112.7 389.0,112.7 408.3,112.7 427.6,112.7 446.9,112.7 466.2,112.7 485.5,107.3 504.8,112.7 524.1,112.7 543.4,112.7 562.8,112.7 582.1,107.3 601.4,107.3 620.7,107.3 640.0,112.7" fill="none" stroke="#444441" stroke-width="3"/><circle cx="80" cy="356" r="4" fill="#D85A30"/><text x="90" y="360" class="ts">frozen prior</text><circle cx="240" cy="356" r="4" fill="#444441"/><text x="250" y="360" class="ts">unfrozen agent (current 0.868)</text></svg>