<svg width="100%" viewBox="0 0 680 380" role="img" xmlns="http://www.w3.org/2000/svg"><title>Unfrozen study loop</title><desc>Held-out accuracy across sessions.</desc><text x="40" y="30" class="th">unfrozen study loop — 25-way, 5760 experiences lived, session 90</text><text x="40" y="50" class="ts">held-out test accuracy across persistent self-measured sessions; frozen prior is flat</text><polyline points="80.0,303.1 86.3,303.1 92.6,303.1 98.9,303.1 105.2,303.1 111.5,303.1 117.8,303.1 124.0,303.1 130.3,303.1 136.6,303.1 142.9,303.1 149.2,303.1 155.5,303.1 161.8,303.1 168.1,303.1 174.4,303.1 180.7,303.1 187.0,303.1 193.3,303.1 199.6,303.1 205.8,303.1 212.1,303.1 218.4,303.1 224.7,303.1 231.0,303.1 237.3,303.1 243.6,303.1 249.9,303.1 256.2,303.1 262.5,303.1 268.8,303.1 275.1,303.1 281.3,303.1 287.6,303.1 293.9,303.1 300.2,303.1 306.5,303.1 312.8,303.1 319.1,303.1 325.4,303.1 331.7,303.1 338.0,303.1 344.3,303.1 350.6,303.1 356.9,303.1 363.1,303.1 369.4,303.1 375.7,303.1 382.0,303.1 388.3,303.1 394.6,303.1 400.9,303.1 407.2,303.1 413.5,303.1 419.8,303.1 426.1,303.1 432.4,303.1 438.7,303.1 444.9,303.1 451.2,303.1 457.5,303.1 463.8,303.1 470.1,303.1 476.4,303.1 482.7,303.1 489.0,303.1 495.3,303.1 501.6,303.1 507.9,303.1 514.2,303.1 520.4,303.1 526.7,303.1 533.0,303.1 539.3,303.1 545.6,303.1 551.9,303.1 558.2,303.1 564.5,303.1 570.8,303.1 577.1,303.1 583.4,303.1 589.7,303.1 596.0,303.1 602.2,303.1 608.5,303.1 614.8,303.1 621.1,303.1 627.4,303.1 633.7,303.1 640.0,303.1" fill="none" stroke="#D85A30" stroke-width="2"/><polyline points="80.0,159.9 86.3,144.0 92.6,149.3 98.9,144.0 105.2,138.7 111.5,128.1 117.8,133.4 124.0,128.1 130.3,138.7 136.6,122.8 142.9,133.4 149.2,133.4 155.5,117.5 161.8,117.5 168.1,112.2 174.4,117.5 180.7,117.5 187.0,117.5 193.3,117.5 199.6,117.5 205.8,117.5 212.1,112.2 218.4,117.5 224.7,117.5 231.0,117.5 237.3,117.5 243.6,112.2 249.9,112.2 256.2,112.2 262.5,117.5 268.8,117.5 275.1,117.5 281.3,112.2 287.6,106.9 293.9,106.9 300.2,112.2 306.5,112.2 312.8,112.2 319.1,112.2 325.4,112.2 331.7,106.9 338.0,112.2 344.3,112.2 350.6,112.2 356.9,112.2 363.1,112.2 369.4,106.9 375.7,112.2 382.0,112.2 388.3,112.2 394.6,112.2 400.9,112.2 407.2,112.2 413.5,112.2 419.8,112.2 426.1,112.2 432.4,112.2 438.7,112.2 444.9,112.2 451.2,112.2 457.5,112.2 463.8,106.9 470.1,106.9 476.4,106.9 482.7,106.9 489.0,106.9 495.3,106.9 501.6,106.9 507.9,106.9 514.2,106.9 520.4,106.9 526.7,106.9 533.0,106.9 539.3,106.9 545.6,106.9 551.9,106.9 558.2,106.9 564.5,106.9 570.8,106.9 577.1,106.9 583.4,106.9 589.7,106.9 596.0,106.9 602.2,106.9 608.5,106.9 614.8,106.9 621.1,106.9 627.4,106.9 633.7,106.9 640.0,106.9" fill="none" stroke="#444441" stroke-width="3"/><circle cx="80" cy="356" r="4" fill="#D85A30"/><text x="90" y="360" class="ts">frozen prior</text><circle cx="240" cy="356" r="4" fill="#444441"/><text x="250" y="360" class="ts">unfrozen agent (current 0.887)</text></svg>